<svg xmlns="http://www.w3.org/2000/svg" viewBox="0 0 64 64" width="64" height="64">
  <rect width="64" height="64" rx="12" fill="#f6c90e"/>
  <!-- Solar panel icon -->
  <rect x="8"  y="14" width="20" height="14" rx="2" fill="#0d1117" stroke="#fff" stroke-width="1"/>
  <rect x="8"  y="30" width="20" height="14" rx="2" fill="#0d1117" stroke="#fff" stroke-width="1"/>
  <rect x="30" y="14" width="20" height="14" rx="2" fill="#0d1117" stroke="#fff" stroke-width="1"/>
  <rect x="30" y="30" width="20" height="14" rx="2" fill="#0d1117" stroke="#fff" stroke-width="1"/>
  <!-- Lightning bolt -->
  <path d="M28 8 L20 32 L28 32 L24 56 L44 28 L34 28 L40 8 Z" fill="#f6c90e" opacity="0" />
  <!-- Simple sun rays at top-right -->
  <circle cx="54" cy="10" r="5" fill="#fff" opacity="0.8"/>
  <line x1="54" y1="3"  x2="54" y2="5"  stroke="#fff" stroke-width="1.5"/>
  <line x1="59" y1="5"  x2="58" y2="6"  stroke="#fff" stroke-width="1.5"/>
  <line x1="61" y1="10" x2="59" y2="10" stroke="#fff" stroke-width="1.5"/>
  <line x1="59" y1="15" x2="58" y2="14" stroke="#fff" stroke-width="1.5"/>
  <!-- Wave / output indicator -->
  <path d="M10 50 Q16 46 22 50 Q28 54 34 50 Q40 46 46 50 Q52 54 56 50" 
        fill="none" stroke="#0d1117" stroke-width="2" stroke-linecap="round"/>
</svg>
